<svg width="251" height="124" viewBox="0 0 251 124" fill="none" xmlns="http://www.w3.org/2000/svg">
<path fill-rule="evenodd" clip-rule="evenodd" d="M140.551 69.6799C130.65 66.1907 120.573 62.8573 109.686 60.9017V10C113.544 16.6777 118.946 20.9155 125.89 22.7133C133.092 24.5112 140.551 25.4101 148.268 25.4101C157.013 25.4101 164.729 27.7216 171.417 32.3446C178.104 27.7216 185.82 25.4101 194.565 25.4101C205.111 25.4101 214.113 28.749 221.573 35.4267C229.289 42.1044 233.147 50.3231 233.147 60.0828V77.4151C226.395 79.2172 218.532 80.8139 209.424 82.049C206.996 82.3781 204.618 82.607 202.282 82.7456V60.0828C202.282 58.0281 201.51 56.2303 199.967 54.6893C198.424 53.1483 196.623 52.3778 194.565 52.3778C192.508 52.3778 190.707 53.1483 189.164 54.6893C187.621 56.2303 186.849 58.0281 186.849 60.0828V82.3916C175.979 81.2641 165.903 78.4194 155.984 75.0905V60.0828C155.984 58.0281 155.212 56.2303 153.669 54.6893C152.126 53.1483 150.325 52.3778 148.268 52.3778C146.21 52.3778 144.409 53.1483 142.866 54.6893C141.323 56.2303 140.551 58.0281 140.551 60.0828V69.6799ZM94.163 59.1996V17.7051L63.2978 25.4101V60.0828C63.2978 60.9167 63.1707 61.7082 62.9166 62.4575C65.3887 61.9499 67.9483 61.4506 70.5974 60.9615C78.9886 59.4123 86.7918 58.9254 94.163 59.1996ZM50.0589 65.3531C37.4769 68.4572 27.7301 71.7235 20.376 74.771C18.1253 70.3399 17 65.4439 17 60.0828V25.4101L47.8652 17.7051V60.0828C47.8652 62.083 48.5964 63.8398 50.0589 65.3531Z" fill="#FF4500"/>
<path fill-rule="evenodd" clip-rule="evenodd" d="M109.825 106.295L140.69 98.5899V73.5142C130.788 70.025 120.711 66.6916 109.825 64.7361V106.295ZM63.0551 66.2918C65.5273 65.7842 68.0868 65.2849 70.736 64.7958C79.1271 63.2467 86.9303 62.7597 94.3016 63.0339V114C90.4434 107.322 84.9134 103.084 77.7115 101.287C70.7669 99.4888 63.4364 98.5899 55.7201 98.5899C45.1745 98.5899 36.0435 95.251 28.3272 88.5733C24.9654 85.5637 22.3612 82.241 20.5145 78.6053C27.8687 75.5579 37.6155 72.2915 50.1974 69.1875C50.2373 69.2287 50.2777 69.2698 50.3187 69.3107C51.8619 70.8517 53.6624 71.6222 55.7201 71.6222C57.7778 71.6222 59.5782 70.8517 61.1215 69.3107C62.0384 68.3951 62.683 67.3888 63.0551 66.2918ZM233.286 81.2495C226.533 83.0515 218.671 84.6482 209.562 85.8833C207.135 86.2124 204.756 86.4413 202.42 86.5799V106.295L233.286 98.5899V81.2495ZM186.988 86.2259C176.117 85.0984 166.042 82.2538 156.122 78.9249V106.295L186.988 98.5899V86.2259Z" fill="#0C0C0C"/>
</svg>
